<?xml version="1.0" encoding="UTF-8" standalone="yes"?>
<!DOCTYPE svg PUBLIC "-//W3C//DTD SVG 1.1//EN" "http://www.w3.org/Graphics/SVG/1.1/DTD/svg11.dtd">

<svg width="500" height="500" viewBox="0 0 500 500" xmlns="http://www.w3.org/2000/svg" xmlns:xlink="http://www.w3.org/1999/xlink" version="1.1" baseProfile="full">
    <g transform="scale(1,-1) translate(0,-500)">
        <path d="M 30.461744 1.236926 L 5.277778 1.236926 C 3.008349 1.236926 1.168613 3.076662 1.168613 5.346091 C 1.168613 7.615520 3.008349 9.455256 5.277778 9.455256 L 30.461744 9.455256 C 32.731173 9.455256 34.570909 7.615520 34.570909 5.346091 C 34.570909 3.076662 32.731173 1.236926 30.461744 1.236926 Z" transform="scale(3.600000,3.600000) translate(5.833333,48.333335)" opacity="1.000000"></path>
        <path d="M 18.333335 1.001734 L 5.386668 1.001734 C 3.117239 1.001734 1.277503 2.841470 1.277503 5.110899 C 1.277503 7.380328 3.117239 9.220064 5.386668 9.220064 L 18.333335 9.220064 C 20.602764 9.220064 22.442500 7.380328 22.442500 5.110899 C 22.442500 2.841470 20.602764 1.001734 18.333335 1.001734 Z" transform="scale(3.600000,3.600000) translate(109.444447,64.166668)" opacity="1.000000"></path>
        <path d="M 9.293130 66.158507 C 9.293130 52.011711 9.293130 52.011711 9.293130 39.251706 C 9.293130 37.829821 9.293130 37.829821 9.293130 36.406016 C 9.293130 22.099970 9.293130 22.099970 9.293130 5.508164 L 5.218720 9.617182 L 44.383952 9.285915 C 66.697476 9.487817 76.964702 18.011874 76.964702 35.666456 L 76.967248 35.521830 C 76.333999 53.502757 66.009701 62.139665 44.322643 62.279813 C 24.806464 62.126179 11.744192 62.049341 5.183965 62.049341 L 9.293130 66.158507 Z M 1.074800 66.158507 C 1.074800 68.427936 2.914536 70.267672 5.183965 70.267672 C 11.715541 70.267672 24.763423 70.344425 44.316939 70.497931 C 70.223102 70.330939 84.381918 58.486222 85.180486 35.811082 L 85.183032 35.666456 C 85.183032 13.109981 70.967145 1.307666 44.386262 1.067899 L 5.149210 1.399145 C 2.893423 1.418225 1.074800 3.252295 1.074800 5.508164 C 1.074800 22.099970 1.074800 22.099970 1.074800 36.406016 C 1.074800 37.829821 1.074800 37.829821 1.074800 39.251706 C 1.074800 52.011711 1.074800 52.011711 1.074800 66.158507 Z" transform="scale(3.600000,3.600000) translate(31.111112,33.611112)" opacity="1.000000"></path>
        <path d="M 30.461744 1.129259 L 5.277777 1.129259 C 3.008348 1.129259 1.168612 2.968995 1.168612 5.238424 C 1.168612 7.507853 3.008348 9.347589 5.277777 9.347589 L 30.461744 9.347589 C 32.731173 9.347589 34.570909 7.507853 34.570909 5.238424 C 34.570909 2.968995 32.731173 1.129259 30.461744 1.129259 Z" transform="scale(3.600000,3.600000) translate(5.833333,80.833335)" opacity="1.000000"></path>
    </g>
</svg>