<?xml version="1.0" encoding="UTF-8" standalone="yes"?>
<!DOCTYPE svg PUBLIC "-//W3C//DTD SVG 1.1//EN" "http://www.w3.org/Graphics/SVG/1.1/DTD/svg11.dtd">

<svg width="500" height="500" viewBox="0 0 500 500" xmlns="http://www.w3.org/2000/svg" xmlns:xlink="http://www.w3.org/1999/xlink" version="1.1" baseProfile="full">
    <g transform="scale(1,-1) translate(0,-500)">
        <path d="M 23.055557 1.087245 L 5.127159 1.087245 C 2.857729 1.087245 1.017993 2.926981 1.017993 5.196410 C 1.017993 7.465839 2.857729 9.305575 5.127159 9.305575 L 23.055557 9.305575 C 25.324986 9.305575 27.164722 7.465839 27.164722 5.196410 C 27.164722 2.926981 25.324986 1.087245 23.055557 1.087245 Z" transform="scale(3.600000,3.600000) translate(-0.833333,47.777779)" opacity="1.000000"></path>
        <path d="M 18.248876 1.001734 L 5.302209 1.001734 C 3.032779 1.001734 1.193043 2.841470 1.193043 5.110899 C 1.193043 7.380328 3.032779 9.220064 5.302209 9.220064 L 18.248876 9.220064 C 20.518305 9.220064 22.358041 7.380328 22.358041 5.110899 C 22.358041 2.841470 20.518305 1.001734 18.248876 1.001734 Z" transform="scale(3.600000,3.600000) translate(116.111114,64.166668)" opacity="1.000000"></path>
        <path d="M 9.312368 66.158507 C 9.312368 52.011711 9.312368 52.011711 9.312368 39.251706 C 9.312368 37.829821 9.312368 37.829821 9.312368 36.406016 C 9.312368 22.099970 9.312368 22.099970 9.312368 5.508164 L 5.237958 9.617182 L 44.403190 9.285915 C 66.716713 9.487817 76.983939 18.011874 76.983939 35.666456 L 76.986485 35.521830 C 76.353236 53.502757 66.028939 62.139665 44.341881 62.279813 C 24.825702 62.126179 11.763429 62.049341 5.203203 62.049341 L 9.312368 66.158507 Z M 1.094038 66.158507 C 1.094038 68.427936 2.933774 70.267672 5.203203 70.267672 C 11.734778 70.267672 24.782660 70.344425 44.336177 70.497931 C 70.242340 70.330939 84.401155 58.486222 85.199724 35.811082 L 85.202270 35.666456 C 85.202270 13.109981 70.986382 1.307666 44.405499 1.067899 L 5.168448 1.399145 C 2.912660 1.418225 1.094038 3.252295 1.094038 5.508164 C 1.094038 22.099970 1.094038 22.099970 1.094038 36.406016 C 1.094038 37.829821 1.094038 37.829821 1.094038 39.251706 C 1.094038 52.011711 1.094038 52.011711 1.094038 66.158507 Z" transform="scale(3.600000,3.600000) translate(17.222223,33.611112)" opacity="1.000000"></path>
        <path d="M 21.378128 1.129259 L 5.127158 1.129259 C 2.857729 1.129259 1.017993 2.968995 1.017993 5.238424 C 1.017993 7.507853 2.857729 9.347589 5.127158 9.347589 L 21.378128 9.347589 C 23.647558 9.347589 25.487294 7.507853 25.487294 5.238424 C 25.487294 2.968995 23.647558 1.129259 21.378128 1.129259 Z" transform="scale(3.600000,3.600000) translate(-0.833333,80.833335)" opacity="1.000000"></path>
        <path d="M 18.029108 12.055344 C 18.029108 15.529148 15.315090 18.318983 12.000548 18.318983 C 8.686007 18.318983 5.971989 15.529148 5.971989 12.055344 C 5.971989 8.581540 8.686007 5.791705 12.000548 5.791705 C 15.315090 5.791705 18.029108 8.581540 18.029108 12.055344 Z M 22.802210 12.055344 C 22.802210 5.974412 17.981081 1.018603 12.000548 1.018603 C 6.020015 1.018603 1.198887 5.974412 1.198887 12.055344 C 1.198887 18.136276 6.020015 23.092085 12.000548 23.092085 C 17.981081 23.092085 22.802210 18.136276 22.802210 12.055344 Z" transform="scale(3.600000,3.600000) translate(98.611114,57.222224)" opacity="1.000000"></path>
    </g>
</svg>