<?xml version="1.0" encoding="UTF-8" standalone="yes"?>
<!DOCTYPE svg PUBLIC "-//W3C//DTD SVG 1.1//EN" "http://www.w3.org/Graphics/SVG/1.1/DTD/svg11.dtd">

<svg width="500" height="500" viewBox="0 0 500 500" xmlns="http://www.w3.org/2000/svg" xmlns:xlink="http://www.w3.org/1999/xlink" version="1.1" baseProfile="full">
    <g transform="scale(1,-1) translate(0,-500)">
        <path d="M 30.844700 1.194227 L 5.341122 1.194227 C 3.071693 1.194227 1.231957 3.033963 1.231957 5.303392 C 1.231957 7.572821 3.071693 9.412557 5.341122 9.412557 L 30.844700 9.412557 C 33.114129 9.412557 34.953865 7.572821 34.953865 5.303392 C 34.953865 3.033963 33.114129 1.194227 30.844700 1.194227 Z" transform="scale(3.600000,3.600000) translate(0.833333,48.611112)" opacity="1.000000"></path>
        <path d="M 18.216620 1.001734 L 5.269953 1.001734 C 3.000524 1.001734 1.160788 2.841470 1.160788 5.110899 C 1.160788 7.380328 3.000524 9.220064 5.269953 9.220064 L 18.216620 9.220064 C 20.486049 9.220064 22.325785 7.380328 22.325785 5.110899 C 22.325785 2.841470 20.486049 1.001734 18.216620 1.001734 Z" transform="scale(3.600000,3.600000) translate(115.277781,64.166668)" opacity="1.000000"></path>
        <path d="M 8.215655 68.858895 C 30.519310 47.655788 30.411500 19.691708 7.925218 2.000882 L 5.174005 9.334159 C 44.677455 11.359864 68.714019 20.911882 77.665377 37.353517 L 77.972635 32.942467 C 65.080460 50.343338 40.921605 60.050203 5.186187 61.776349 L 8.215655 68.858895 Z M 2.553230 62.902562 C -0.206981 65.526575 1.778695 70.168855 5.582699 69.985109 C 43.549682 68.151171 69.984094 57.530002 84.576054 37.834890 C 85.528269 36.549663 85.648147 34.828670 84.883312 33.423840 C 74.219792 13.837346 47.663089 3.283836 5.594881 1.126613 C 1.592329 0.921365 -0.306180 5.981784 2.843667 8.459890 C 21.257179 22.946511 21.342358 45.040562 2.553230 62.902562 Z" transform="scale(3.600000,3.600000) translate(15.000000,33.888890)" opacity="1.000000"></path>
        <path d="M 28.978811 1.171953 L 5.341122 1.171953 C 3.071693 1.171953 1.231957 3.011689 1.231957 5.281119 C 1.231957 7.550548 3.071693 9.390284 5.341122 9.390284 L 28.978811 9.390284 C 31.248240 9.390284 33.087976 7.550548 33.087976 5.281119 C 33.087976 3.011689 31.248240 1.171953 28.978811 1.171953 Z" transform="scale(3.600000,3.600000) translate(0.833333,80.555558)" opacity="1.000000"></path>
        <path d="M 17.858536 12.312777 C 17.858536 15.786580 15.144518 18.576415 11.829977 18.576415 C 8.515435 18.576415 5.801417 15.786580 5.801417 12.312777 C 5.801417 8.838973 8.515435 6.049138 11.829977 6.049138 C 15.144518 6.049138 17.858536 8.838973 17.858536 12.312777 Z M 22.631638 12.312777 C 22.631638 6.231845 17.810510 1.276036 11.829977 1.276036 C 5.849444 1.276036 1.028315 6.231845 1.028315 12.312777 C 1.028315 18.393709 5.849444 23.349517 11.829977 23.349517 C 17.810510 23.349517 22.631638 18.393709 22.631638 12.312777 Z" transform="scale(3.600000,3.600000) translate(96.666669,56.944446)" opacity="1.000000"></path>
    </g>
</svg>