<?xml version="1.0" encoding="UTF-8" standalone="yes"?>
<!DOCTYPE svg PUBLIC "-//W3C//DTD SVG 1.1//EN" "http://www.w3.org/Graphics/SVG/1.1/DTD/svg11.dtd">

<svg width="500" height="500" viewBox="0 0 500 500" xmlns="http://www.w3.org/2000/svg" xmlns:xlink="http://www.w3.org/1999/xlink" version="1.1" baseProfile="full">
    <g transform="scale(1,-1) translate(0,-500)">
        <path d="M 21.840749 1.111156 L 5.693590 1.111156 C 3.233989 1.111156 1.240088 3.105056 1.240088 5.564657 C 1.240088 8.024258 3.233989 10.018158 5.693590 10.018158 L 21.840749 10.018158 C 24.300349 10.018158 26.294250 8.024258 26.294250 5.564657 C 26.294250 3.105056 24.300349 1.111156 21.840749 1.111156 Z" transform="scale(3.600000,3.600000) translate(-1.388889,43.333334)" opacity="1.000000"></path>
        <path d="M 19.352647 1.251270 L 5.609019 1.251270 C 3.149418 1.251270 1.155518 3.245171 1.155518 5.704771 C 1.155518 8.164372 3.149418 10.158273 5.609019 10.158273 L 19.352647 10.158273 C 21.812248 10.158273 23.806148 8.164372 23.806148 5.704771 C 23.806148 3.245171 21.812248 1.251270 19.352647 1.251270 Z" transform="scale(3.600000,3.600000) translate(116.944448,61.388891)" opacity="1.000000"></path>
        <path d="M 22.503283 1.005594 L 5.675126 1.005594 C 3.215525 1.005594 1.221625 2.999494 1.221625 5.459095 C 1.221625 7.918696 3.215525 9.912596 5.675126 9.912596 L 22.503283 9.912596 C 24.962884 9.912596 26.956784 7.918696 26.956784 5.459095 C 26.956784 2.999494 24.962884 1.005594 22.503283 1.005594 Z" transform="scale(3.600000,3.600000) translate(-1.111111,80.000002)" opacity="1.000000"></path>
        <path d="M 19.961628 13.378452 C 19.961628 17.217945 16.911489 20.314256 13.169286 20.314256 C 9.427084 20.314256 6.376944 17.217945 6.376944 13.378452 C 6.376944 9.538959 9.427084 6.442647 13.169286 6.442647 C 16.911489 6.442647 19.961628 9.538959 19.961628 13.378452 Z M 25.331242 13.378452 C 25.331242 6.591311 19.895253 1.073034 13.169286 1.073034 C 6.443320 1.073034 1.007331 6.591311 1.007331 13.378452 C 1.007331 20.165592 6.443320 25.683870 13.169286 25.683870 C 19.895253 25.683870 25.331242 20.165592 25.331242 13.378452 Z" transform="scale(3.600000,3.600000) translate(97.222225,53.888890)" opacity="1.000000"></path>
        <path d="M 10.077079 93.191409 L 10.312157 5.742078 L 3.497104 9.505906 L 73.785679 53.467787 L 73.809738 45.901245 L 3.286084 89.388695 L 10.077079 93.191409 Z M 1.170108 93.167465 C 1.160723 96.658698 4.989416 98.802629 7.961103 96.970179 L 78.484757 53.482729 C 81.295549 51.749492 81.308530 47.667263 78.508816 45.916187 L 8.220241 1.954306 C 5.258602 0.101954 1.414577 2.224938 1.405187 5.718134 L 1.170108 93.167465 Z" transform="scale(3.600000,3.600000) translate(20.000001,17.777778)" opacity="1.000000"></path>
    </g>
</svg>