<?xml version="1.0" encoding="UTF-8" standalone="yes"?>
<!DOCTYPE svg PUBLIC "-//W3C//DTD SVG 1.1//EN" "http://www.w3.org/Graphics/SVG/1.1/DTD/svg11.dtd">

<svg width="500" height="500" viewBox="0 0 500 500" xmlns="http://www.w3.org/2000/svg" xmlns:xlink="http://www.w3.org/1999/xlink" version="1.1" baseProfile="full">
    <g transform="scale(1,-1) translate(0,-500)">
        <path d="M 41.755334 1.194227 L 5.277778 1.194227 C 3.008349 1.194227 1.168613 3.033963 1.168613 5.303392 C 1.168613 7.572821 3.008349 9.412557 5.277778 9.412557 L 41.755334 9.412557 C 44.024763 9.412557 45.864499 7.572821 45.864499 5.303392 C 45.864499 3.033963 44.024763 1.194227 41.755334 1.194227 Z" transform="scale(3.600000,3.600000) translate(5.833333,48.611112)" opacity="1.000000"></path>
        <path d="M 18.333334 1.001734 L 5.386667 1.001734 C 3.117238 1.001734 1.277502 2.841470 1.277502 5.110899 C 1.277502 7.380328 3.117238 9.220064 5.386667 9.220064 L 18.333334 9.220064 C 20.602763 9.220064 22.442499 7.380328 22.442499 5.110899 C 22.442499 2.841470 20.602763 1.001734 18.333334 1.001734 Z" transform="scale(3.600000,3.600000) translate(109.444447,64.166668)" opacity="1.000000"></path>
        <path d="M 8.015178 68.858895 C 30.318833 47.655788 30.211023 19.691708 7.724741 2.000882 L 4.973527 9.334159 C 44.476977 11.359864 68.513542 20.911882 77.464899 37.353517 L 77.772157 32.942467 C 64.879983 50.343338 40.721127 60.050203 4.985709 61.776349 L 8.015178 68.858895 Z M 2.352753 62.902562 C -0.407459 65.526575 1.578217 70.168855 5.382221 69.985109 C 43.349204 68.151171 69.783617 57.530002 84.375576 37.834890 C 85.327791 36.549663 85.447670 34.828670 84.682835 33.423840 C 74.019314 13.837346 47.462611 3.283836 5.394403 1.126613 C 1.391852 0.921365 -0.506657 5.981784 2.643190 8.459890 C 21.056701 22.946511 21.141881 45.040562 2.352753 62.902562 Z" transform="scale(3.600000,3.600000) translate(31.111112,33.888890)" opacity="1.000000"></path>
        <path d="M 39.889445 1.129254 L 5.277778 1.129254 C 3.008349 1.129254 1.168613 2.968990 1.168613 5.238420 C 1.168613 7.507849 3.008349 9.347585 5.277778 9.347585 L 39.889445 9.347585 C 42.158874 9.347585 43.998610 7.507849 43.998610 5.238420 C 43.998610 2.968990 42.158874 1.129254 39.889445 1.129254 Z" transform="scale(3.600000,3.600000) translate(5.833333,80.833335)" opacity="1.000000"></path>
    </g>
</svg>