<?xml version="1.0" encoding="UTF-8" standalone="yes"?>
<!DOCTYPE svg PUBLIC "-//W3C//DTD SVG 1.1//EN" "http://www.w3.org/Graphics/SVG/1.1/DTD/svg11.dtd">

<svg width="500" height="500" viewBox="0 0 500 500" xmlns="http://www.w3.org/2000/svg" xmlns:xlink="http://www.w3.org/1999/xlink" version="1.1" baseProfile="full">
    <g transform="scale(1,-1) translate(0,-500)">
        <path d="M 9.814313 17.963643 L 89.165053 17.963646 C 93.756926 17.963646 97.479369 14.241200 97.479369 9.649327 C 97.479369 5.057455 93.756926 1.335007 89.165053 1.335007 L 9.814313 1.335004 C 5.222441 1.335004 1.499994 5.057451 1.499994 9.649323 C 1.499994 14.241195 5.222441 17.963643 9.814313 17.963643 Z" transform="scale(1.000000,1.000000) translate(61.000000,416.000000)" opacity="1.000000"> fill="currentColor"</path>
        <path d="M 9.814306 18.368106 L 89.165047 18.368109 C 93.756919 18.368109 97.479369 14.645662 97.479369 10.053790 C 97.479369 5.461918 93.756919 1.739471 89.165047 1.739471 L 9.814307 1.739467 C 5.222435 1.739467 1.499987 5.461914 1.499987 10.053786 C 1.499987 14.645659 5.222435 18.368106 9.814306 18.368106 Z" transform="scale(1.000000,1.000000) translate(61.000000,369.000000)" opacity="1.000000"> fill="currentColor"</path>
        <path d="M 9.814306 17.809726 L 89.165047 17.809731 C 93.756919 17.809731 97.479369 14.087283 97.479369 9.495411 C 97.479369 4.903539 93.756919 1.181091 89.165047 1.181091 L 9.814307 1.181088 C 5.222435 1.181088 1.499987 4.903535 1.499987 9.495406 C 1.499987 14.087279 5.222435 17.809726 9.814306 17.809726 Z" transform="scale(1.000000,1.000000) translate(61.000000,317.000000)" opacity="1.000000"> fill="currentColor"</path>
        <path d="M 9.814319 18.448555 L 89.165059 18.448558 C 93.756932 18.448558 97.479382 14.726111 97.479382 10.134239 C 97.479382 5.542367 93.756932 1.819919 89.165059 1.819919 L 9.814320 1.819916 C 5.222448 1.819915 1.500000 5.542363 1.500000 10.134235 C 1.500000 14.726107 5.222448 18.448555 9.814319 18.448555 Z" transform="scale(1.000000,1.000000) translate(61.000000,213.000000)" opacity="1.000000"> fill="currentColor"</path>
        <path d="M 9.814319 17.702429 L 89.165059 17.702432 C 93.756932 17.702432 97.479382 13.979984 97.479382 9.388113 C 97.479382 4.796241 93.756932 1.073793 89.165059 1.073793 L 9.814320 1.073790 C 5.222448 1.073790 1.500000 4.796237 1.500000 9.388109 C 1.500000 13.979980 5.222448 17.702429 9.814319 17.702429 Z" transform="scale(1.000000,1.000000) translate(61.000000,168.000000)" opacity="1.000000"> fill="currentColor"</path>
        <path d="M 9.814303 17.646973 L 89.165047 17.647131 C 93.756913 17.647140 97.479369 13.924699 97.479382 9.332828 C 97.479389 4.740956 93.756951 1.018501 89.165079 1.018492 L 9.814336 1.018333 C 5.222465 1.018324 1.500009 4.740764 1.500000 9.332636 C 1.499991 13.924508 5.222431 17.646963 9.814303 17.646973 Z" transform="scale(1.000000,1.000000) translate(61.000000,119.000000)" opacity="1.000000"> fill="currentColor"</path>
        <path d="M 9.814303 18.245870 L 89.165047 18.246029 C 93.756913 18.246037 97.479369 14.523597 97.479382 9.931726 C 97.479389 5.339853 93.756951 1.617398 89.165079 1.617389 L 9.814336 1.617230 C 5.222465 1.617221 1.500009 5.339661 1.500000 9.931534 C 1.499991 14.523404 5.222431 18.245861 9.814303 18.245870 Z" transform="scale(1.000000,1.000000) translate(61.000000,64.000000)" opacity="1.000000"> fill="currentColor"</path>
        <path d="M 9.814303 18.599936 L 89.165047 18.600097 C 93.756913 18.600105 97.479369 14.877665 97.479382 10.285793 C 97.479389 5.693922 93.756951 1.971466 89.165079 1.971457 L 9.814336 1.971298 C 5.222465 1.971289 1.500009 5.693729 1.500000 10.285601 C 1.499991 14.877474 5.222431 18.599928 9.814303 18.599936 Z" transform="scale(1.000000,1.000000) translate(61.000000,269.000000)" opacity="1.000000"> fill="currentColor"</path>
        <path d="M 10.278842 18.417165 L 92.185677 18.417165 C 96.777550 18.417165 100.500000 14.694718 100.500000 10.102846 C 100.500000 5.510974 96.777550 1.788526 92.185677 1.788526 L 10.278842 1.788526 C 5.686971 1.788526 1.964523 5.510974 1.964523 10.102846 C 1.964523 14.694718 5.686971 18.417165 10.278842 18.417165 Z" transform="scale(1.000000,1.000000) translate(337.000000,238.000000)" opacity="1.000000"> fill="currentColor"</path>
        <path d="M 21.500000 26.103527 L 180.500000 26.103527 C 178.014719 26.103527 176.000000 24.088809 176.000000 21.603528 L 176.000000 400.637317 C 176.000000 398.152036 178.014719 396.137317 180.500000 396.137317 L 21.500000 396.137317 C 23.985281 396.137317 26.000000 398.152036 26.000000 400.637317 L 26.000000 21.603528 C 26.000000 24.088809 23.985281 26.103527 21.500000 26.103527 Z M 21.500000 1.103527 C 10.178163 1.103527 1.000000 10.281690 1.000000 21.603528 L 1.000000 400.637317 C 1.000000 411.959155 10.178163 421.137317 21.500000 421.137317 L 180.500000 421.137317 C 191.821837 421.137317 201.000000 411.959155 201.000000 400.637317 L 201.000000 21.603528 C 201.000000 10.281690 191.821837 1.103527 180.500000 1.103527 L 21.500000 1.103527 Z" transform="scale(1.000000,1.000000) translate(149.000000,38.000000)" opacity="1.000000"> fill="currentColor"</path>
    </g>
</svg>