<?xml version="1.0" encoding="UTF-8" standalone="yes"?>
<!DOCTYPE svg PUBLIC "-//W3C//DTD SVG 1.1//EN" "http://www.w3.org/Graphics/SVG/1.1/DTD/svg11.dtd">

<svg width="500" height="500" viewBox="0 0 500 500" xmlns="http://www.w3.org/2000/svg" xmlns:xlink="http://www.w3.org/1999/xlink" version="1.1" baseProfile="full">
    <g transform="scale(1,-1) translate(0,-500)">
        <path d="M 16.657165 25.204680 L 176.178646 25.204680 C 174.326124 25.204680 172.824358 23.294349 172.824358 20.937838 L 172.824358 357.062164 C 172.824358 354.705657 174.326124 352.795319 176.178646 352.795319 L 16.657165 352.795319 C 18.509688 352.795319 20.011457 354.705657 20.011457 357.062164 L 20.011457 20.937838 C 20.011457 23.294349 18.509688 25.204680 16.657165 25.204680 Z M 16.657165 1.500000 C 8.217889 1.500000 1.376504 10.202615 1.376504 20.937838 L 1.376504 357.062164 C 1.376504 367.797404 8.217889 376.500000 16.657165 376.500000 L 176.178646 376.500000 C 184.617924 376.500000 191.459307 367.797404 191.459307 357.062164 L 191.459307 20.937838 C 191.459307 10.202615 184.617924 1.500000 176.178646 1.500000 L 16.657165 1.500000 Z" transform="scale(1.000000,1.000000) translate(152.000000,61.000000)" opacity="1.000000"></path>
        <path d="M 9.013050 20.006891 L 79.293248 20.006894 C 83.360227 20.006894 86.657165 15.813012 86.657165 10.639593 C 86.657165 5.466175 83.360227 1.272292 79.293248 1.272292 L 9.013051 1.272288 C 4.946074 1.272288 1.649137 5.466171 1.649137 10.639589 C 1.649137 15.813007 4.946074 20.006891 9.013050 20.006891 Z" transform="scale(1.000000,1.000000) translate(82.000000,317.000000)" opacity="1.000000"></path>
        <path d="M 9.013036 20.083330 L 79.293235 20.083509 C 83.360206 20.083518 86.657152 15.889642 86.657165 10.716226 C 86.657165 5.542808 83.360240 1.348916 79.293262 1.348906 L 9.013065 1.348727 C 4.946089 1.348716 1.649145 5.542592 1.649137 10.716010 C 1.649129 15.889428 4.946059 20.083320 9.013036 20.083330 Z" transform="scale(1.000000,1.000000) translate(82.000000,158.000000)" opacity="1.000000"></path>
        <path d="M 9.158945 20.229884 L 81.703049 20.229884 C 85.770027 20.229884 89.066966 16.036002 89.066966 10.862582 C 89.066966 5.689164 85.770027 1.495282 81.703049 1.495282 L 9.158945 1.495282 C 5.091968 1.495282 1.795031 5.689164 1.795031 10.862582 C 1.795031 16.036002 5.091968 20.229884 9.158945 20.229884 Z" transform="scale(1.000000,1.000000) translate(327.000000,237.000000)" opacity="1.000000"></path>
    </g>
</svg>