<?xml version="1.0" encoding="UTF-8" standalone="yes"?>
<!DOCTYPE svg PUBLIC "-//W3C//DTD SVG 1.1//EN" "http://www.w3.org/Graphics/SVG/1.1/DTD/svg11.dtd">

<svg width="500" height="500" viewBox="0 0 500 500" xmlns="http://www.w3.org/2000/svg" xmlns:xlink="http://www.w3.org/1999/xlink" version="1.1" baseProfile="full">
    <g transform="scale(1,-1) translate(0,-500)">
        <path d="M 19.158847 28.026817 L 199.268587 28.026817 C 197.176964 28.026817 195.481382 25.869934 195.481382 23.209285 L 195.481382 402.714702 C 195.481382 400.054043 197.176964 397.897171 199.268587 397.897171 L 19.158847 397.897171 C 21.250462 397.897171 22.946052 400.054043 22.946052 402.714702 L 22.946052 23.209285 C 22.946052 25.869934 21.250462 28.026817 19.158847 28.026817 Z M 19.158847 1.262750 C 9.630377 1.262750 1.906025 11.088547 1.906025 23.209285 L 1.906025 402.714702 C 1.906025 414.835440 9.630377 424.661236 19.158847 424.661236 L 199.268587 424.661236 C 208.797058 424.661236 216.521409 414.835440 216.521409 402.714702 L 216.521409 23.209285 C 216.521409 11.088547 208.797058 1.262750 199.268587 1.262750 L 19.158847 1.262750 Z" transform="scale(1.000000,1.000000) translate(139.000000,40.000000)" opacity="1.000000"></path>
        <path d="M 9.814319 22.640972 L 89.165059 22.640976 C 93.756932 22.640976 97.479382 17.905820 97.479382 12.064707 C 97.479382 6.223594 93.756932 1.488437 89.165059 1.488437 L 9.814320 1.488433 C 5.222448 1.488433 1.500000 6.223589 1.500000 12.064702 C 1.500000 17.905815 5.222448 22.640972 9.814319 22.640972 Z" transform="scale(1.000000,1.000000) translate(61.000000,362.000000)" opacity="1.000000"></path>
        <path d="M 9.493784 22.538261 L 88.844524 22.538265 C 93.436397 22.538265 97.158847 17.803109 97.158847 11.961995 C 97.158847 6.120884 93.436397 1.385726 88.844524 1.385725 L 9.493785 1.385722 C 4.901913 1.385721 1.179465 6.120878 1.179465 11.961991 C 1.179465 17.803103 4.901913 22.538261 9.493784 22.538261 Z" transform="scale(1.000000,1.000000) translate(61.000000,241.000000)" opacity="1.000000"></path>
        <path d="M 9.814303 23.142836 L 89.165047 23.143038 C 93.756913 23.143048 97.479369 18.407900 97.479382 12.566789 C 97.479389 6.725676 93.756951 1.990510 89.165079 1.990498 L 9.814336 1.990296 C 5.222465 1.990284 1.500009 6.725432 1.500000 12.566545 C 1.499991 18.407657 5.222431 23.142824 9.814303 23.142836 Z" transform="scale(1.000000,1.000000) translate(61.000000,119.000000)" opacity="1.000000"></path>
        <path d="M 10.278842 23.124979 L 92.185677 23.124979 C 96.777550 23.124979 100.500000 18.389823 100.500000 12.548709 C 100.500000 6.707596 96.777550 1.972440 92.185677 1.972440 L 10.278842 1.972440 C 5.686971 1.972440 1.964523 6.707596 1.964523 12.548709 C 1.964523 18.389823 5.686971 23.124979 10.278842 23.124979 Z" transform="scale(1.000000,1.000000) translate(337.000000,238.000000)" opacity="1.000000"></path>
    </g>
</svg>