<?xml version="1.0" encoding="UTF-8" standalone="yes"?>
<!DOCTYPE svg PUBLIC "-//W3C//DTD SVG 1.1//EN" "http://www.w3.org/Graphics/SVG/1.1/DTD/svg11.dtd">

<svg width="500" height="500" viewBox="0 0 500 500" xmlns="http://www.w3.org/2000/svg" xmlns:xlink="http://www.w3.org/1999/xlink" version="1.1" baseProfile="full">
    <g transform="scale(1,-1) translate(0,-500)">
        <path d="M 21.572635 26.508441 L 235.581081 26.508441 C 233.095800 26.508441 231.081081 24.493722 231.081081 22.008441 L 231.081081 376.499999 C 231.081081 374.014718 233.095800 372.000000 235.581081 372.000000 L 21.572635 372.000000 C 24.057916 372.000000 26.072635 374.014718 26.072635 376.499999 L 26.072635 22.008441 C 26.072635 24.493722 24.057916 26.508441 21.572635 26.508441 Z M 21.572635 1.508441 C 10.250798 1.508441 1.072635 10.686603 1.072635 22.008441 L 1.072635 376.499999 C 1.072635 387.821837 10.250798 397.000000 21.572635 397.000000 L 235.581081 397.000000 C 246.902919 397.000000 256.081081 387.821837 256.081081 376.499999 L 256.081081 22.008441 C 256.081081 10.686603 246.902919 1.508441 235.581081 1.508441 L 21.572635 1.508441 Z" transform="scale(1.000000,1.000000) translate(121.000000,53.000000)" opacity="1.000000"></path>
        <path d="M 11.788870 21.552589 L 106.074323 21.552593 C 111.530438 21.552593 115.953493 17.129539 115.953493 11.673424 C 115.953494 6.217309 111.530439 1.794254 106.074324 1.794254 L 11.788871 1.794250 C 6.332756 1.794250 1.909701 6.217305 1.909701 11.673419 C 1.909701 17.129534 6.332756 21.552589 11.788870 21.552589 Z" transform="scale(1.000000,1.000000) translate(27.000000,397.000000)" opacity="1.000000"></path>
        <path d="M 11.788870 21.254010 L 106.074326 21.254014 C 111.530441 21.254014 115.953496 16.830959 115.953496 11.374845 C 115.953496 5.918730 111.530442 1.495675 106.074327 1.495675 L 11.788871 1.495671 C 6.332756 1.495671 1.909701 5.918725 1.909701 11.374840 C 1.909701 16.830955 6.332756 21.254010 11.788870 21.254010 Z" transform="scale(1.000000,1.000000) translate(27.000000,354.000000)" opacity="1.000000"></path>
        <path d="M 11.788870 20.881440 L 106.074326 20.881444 C 111.530441 20.881444 115.953496 16.458390 115.953496 11.002275 C 115.953496 5.546160 111.530442 1.123105 106.074327 1.123105 L 11.788871 1.123101 C 6.332756 1.123101 1.909701 5.546156 1.909701 11.002270 C 1.909701 16.458385 6.332756 20.881440 11.788870 20.881440 Z" transform="scale(1.000000,1.000000) translate(27.000000,306.000000)" opacity="1.000000"></path>
        <path d="M 11.788870 21.272387 L 106.074326 21.272390 C 111.530441 21.272391 115.953496 16.849336 115.953496 11.393221 C 115.953496 5.937107 111.530442 1.514052 106.074327 1.514051 L 11.788871 1.514048 C 6.332756 1.514047 1.909701 5.937102 1.909701 11.393217 C 1.909701 16.849331 6.332756 21.272386 11.788870 21.272387 Z" transform="scale(1.000000,1.000000) translate(27.000000,220.000000)" opacity="1.000000"></path>
        <path d="M 11.788870 20.977522 L 106.074326 20.977526 C 111.530441 20.977526 115.953496 16.554471 115.953496 11.098357 C 115.953496 5.642242 111.530442 1.219187 106.074327 1.219187 L 11.788871 1.219183 C 6.332756 1.219183 1.909701 5.642237 1.909701 11.098352 C 1.909701 16.554467 6.332756 20.977522 11.788870 20.977522 Z" transform="scale(1.000000,1.000000) translate(27.000000,177.000000)" opacity="1.000000"></path>
        <path d="M 11.788851 21.739345 L 106.074307 21.739534 C 111.530422 21.739544 115.953485 17.316498 115.953496 11.860384 C 115.953507 6.404269 111.530461 1.981206 106.074347 1.981195 L 11.788890 1.981006 C 6.332776 1.980995 1.909712 6.404041 1.909701 11.860156 C 1.909690 17.316270 6.332736 21.739334 11.788851 21.739345 Z" transform="scale(1.000000,1.000000) translate(27.000000,127.000000)" opacity="1.000000"></path>
        <path d="M 11.788851 21.193923 L 106.074307 21.194112 C 111.530422 21.194123 115.953485 16.771077 115.953496 11.314962 C 115.953507 5.858847 111.530461 1.435784 106.074347 1.435773 L 11.788890 1.435584 C 6.332776 1.435573 1.909712 5.858619 1.909701 11.314734 C 1.909690 16.770848 6.332736 21.193912 11.788851 21.193923 Z" transform="scale(1.000000,1.000000) translate(27.000000,80.000000)" opacity="1.000000"></path>
        <path d="M 11.788851 20.847434 L 106.074307 20.847623 C 111.530422 20.847634 115.953485 16.424588 115.953496 10.968473 C 115.953507 5.512359 111.530461 1.089295 106.074347 1.089284 L 11.788890 1.089095 C 6.332776 1.089084 1.909712 5.512130 1.909701 10.968245 C 1.909690 16.424360 6.332736 20.847423 11.788851 20.847434 Z" transform="scale(1.000000,1.000000) translate(27.000000,261.000000)" opacity="1.000000"></path>
        <path d="M 11.287173 20.879169 L 108.609811 20.879169 C 114.065926 20.879169 118.488981 16.456115 118.488981 11.000000 C 118.488981 5.543885 114.065926 1.120831 108.609811 1.120831 L 11.287173 1.120831 C 5.831059 1.120831 1.408004 5.543885 1.408004 11.000000 C 1.408004 16.456115 5.831059 20.879169 11.287173 20.879169 Z" transform="scale(1.000000,1.000000) translate(356.000000,239.000000)" opacity="1.000000"></path>
    </g>
</svg>