<?xml version="1.0" encoding="UTF-8" standalone="yes"?>
<!DOCTYPE svg PUBLIC "-//W3C//DTD SVG 1.1//EN" "http://www.w3.org/Graphics/SVG/1.1/DTD/svg11.dtd">

<svg width="500" height="500" viewBox="0 0 500 500" xmlns="http://www.w3.org/2000/svg" xmlns:xlink="http://www.w3.org/1999/xlink" version="1.1" baseProfile="full">
    <g transform="scale(1,-1) translate(0,-500)">
        <path d="M 21.572635 26.508441 L 235.581081 26.508441 C 233.095800 26.508441 231.081081 24.493722 231.081081 22.008441 L 231.081081 376.499999 C 231.081081 374.014718 233.095800 372.000000 235.581081 372.000000 L 21.572635 372.000000 C 24.057916 372.000000 26.072635 374.014718 26.072635 376.499999 L 26.072635 22.008441 C 26.072635 24.493722 24.057916 26.508441 21.572635 26.508441 Z M 21.572635 1.508441 C 10.250798 1.508441 1.072635 10.686603 1.072635 22.008441 L 1.072635 376.499999 C 1.072635 387.821837 10.250798 397.000000 21.572635 397.000000 L 235.581081 397.000000 C 246.902919 397.000000 256.081081 387.821837 256.081081 376.499999 L 256.081081 22.008441 C 256.081081 10.686603 246.902919 1.508441 235.581081 1.508441 L 21.572635 1.508441 Z" transform="scale(1.000000,1.000000) translate(121.000000,53.000000)" opacity="1.000000"></path>
        <path d="M 11.788870 20.843040 L 106.074323 20.843044 C 111.530438 20.843044 115.953493 16.419990 115.953493 10.963875 C 115.953494 5.507760 111.530439 1.084705 106.074324 1.084705 L 11.788871 1.084701 C 6.332756 1.084701 1.909701 5.507756 1.909701 10.963870 C 1.909701 16.419985 6.332756 20.843040 11.788870 20.843040 Z" transform="scale(1.000000,1.000000) translate(27.000000,374.000000)" opacity="1.000000"></path>
        <path d="M 11.788870 20.940314 L 106.074326 20.940318 C 111.530441 20.940318 115.953496 16.517263 115.953496 11.061149 C 115.953496 5.605034 111.530442 1.181979 106.074327 1.181979 L 11.788871 1.181975 C 6.332756 1.181975 1.909701 5.605029 1.909701 11.061144 C 1.909701 16.517259 6.332756 20.940314 11.788870 20.940314 Z" transform="scale(1.000000,1.000000) translate(27.000000,284.000000)" opacity="1.000000"></path>
        <path d="M 11.788870 21.037589 L 106.074326 21.037592 C 111.530441 21.037593 115.953496 16.614538 115.953496 11.158423 C 115.953496 5.702309 111.530442 1.279254 106.074327 1.279253 L 11.788871 1.279250 C 6.332756 1.279249 1.909701 5.702304 1.909701 11.158419 C 1.909701 16.614533 6.332756 21.037588 11.788870 21.037589 Z" transform="scale(1.000000,1.000000) translate(27.000000,194.000000)" opacity="1.000000"></path>
        <path d="M 11.788851 21.043586 L 106.074307 21.043774 C 111.530422 21.043785 115.953485 16.620739 115.953496 11.164625 C 115.953507 5.708510 111.530461 1.285446 106.074347 1.285436 L 11.788890 1.285247 C 6.332776 1.285236 1.909712 5.708282 1.909701 11.164396 C 1.909690 16.620511 6.332736 21.043575 11.788851 21.043586 Z" transform="scale(1.000000,1.000000) translate(27.000000,103.000000)" opacity="1.000000"></path>
        <path d="M 11.287173 20.879169 L 108.609811 20.879169 C 114.065926 20.879169 118.488981 16.456115 118.488981 11.000000 C 118.488981 5.543885 114.065926 1.120831 108.609811 1.120831 L 11.287173 1.120831 C 5.831059 1.120831 1.408004 5.543885 1.408004 11.000000 C 1.408004 16.456115 5.831059 20.879169 11.287173 20.879169 Z" transform="scale(1.000000,1.000000) translate(356.000000,239.000000)" opacity="1.000000"></path>
    </g>
</svg>