<?xml version="1.0" encoding="UTF-8" standalone="yes"?>
<!DOCTYPE svg PUBLIC "-//W3C//DTD SVG 1.1//EN" "http://www.w3.org/Graphics/SVG/1.1/DTD/svg11.dtd">

<svg width="500" height="500" viewBox="0 0 500 500" xmlns="http://www.w3.org/2000/svg" xmlns:xlink="http://www.w3.org/1999/xlink" version="1.1" baseProfile="full">
    <g transform="scale(1,-1) translate(0,-500)">
        <path d="M 265.655529 416.717052 L 24.410126 416.717084 C 27.211721 416.717084 29.482844 418.976389 29.482844 421.763382 L 29.482801 24.236651 C 29.482802 27.023655 27.211679 29.282950 24.410085 29.282950 L 265.655487 29.282919 C 262.853904 29.282919 260.582770 27.023625 260.582770 24.236621 L 260.582812 421.763352 C 260.582812 418.976358 262.853945 416.717053 265.655529 416.717052 Z M 265.655532 444.752046 C 278.418305 444.752045 288.764576 434.459655 288.764574 421.763348 L 288.764532 24.236617 C 288.764531 11.540311 278.418257 1.247924 265.655484 1.247926 L 24.410082 1.247958 C 11.647308 1.247959 1.301038 11.540348 1.301040 24.236655 L 1.301082 421.763386 C 1.301084 434.459693 11.647355 444.752080 24.410129 444.752078 L 265.655532 444.752046 Z" transform="scale(1.000000,1.000000) translate(86.000000,27.000000)" opacity="1.000000"></path>
        <path d="M 107.636974 1.513029 L 11.990380 1.513037 C 6.455498 1.513038 1.968596 6.473050 1.968596 12.591536 C 1.968597 18.710022 6.455500 23.670034 11.990382 23.670033 L 107.636975 23.670025 C 113.171856 23.670024 117.658764 18.710011 117.658763 12.591527 C 117.658762 6.473041 113.171854 1.513028 107.636974 1.513029 Z" transform="scale(1.000000,1.000000) translate(352.000000,62.000000)" opacity="1.000000"></path>
        <path d="M 107.636979 1.068044 L 11.990385 1.068053 C 6.455503 1.068053 1.968593 6.028065 1.968594 12.146551 C 1.968594 18.265036 6.455505 23.225048 11.990387 23.225047 L 107.636980 23.225039 C 113.171862 23.225038 117.658769 18.265026 117.658768 12.146541 C 117.658768 6.028054 113.171859 1.068044 107.636979 1.068044 Z" transform="scale(1.000000,1.000000) translate(352.000000,111.000000)" opacity="1.000000"></path>
        <path d="M 107.636985 1.313030 L 11.990391 1.313037 C 6.455509 1.313037 1.968599 6.273051 1.968600 12.391536 C 1.968600 18.510022 6.455511 23.470034 11.990393 23.470033 L 107.636986 23.470025 C 113.171867 23.470024 117.658775 18.510011 117.658774 12.391527 C 117.658773 6.273040 113.171865 1.313030 107.636985 1.313030 Z" transform="scale(1.000000,1.000000) translate(352.000000,165.000000)" opacity="1.000000"></path>
        <path d="M 107.636995 1.314997 L 11.990401 1.315006 C 6.455519 1.315006 1.968609 6.275018 1.968610 12.393505 C 1.968610 18.511989 6.455521 23.472001 11.990404 23.472002 L 107.636997 23.471993 C 113.171878 23.471993 117.658785 18.511980 117.658784 12.393494 C 117.658784 6.275009 113.171875 1.314997 107.636995 1.314997 Z" transform="scale(1.000000,1.000000) translate(352.000000,261.000000)" opacity="1.000000"></path>
        <path d="M 107.637000 1.865846 L 11.990406 1.865854 C 6.455524 1.865855 1.968614 6.825869 1.968615 12.944352 C 1.968616 19.062839 6.455527 24.022850 11.990409 24.022850 L 107.637002 24.022842 C 113.171883 24.022841 117.658790 19.062829 117.658790 12.944343 C 117.658789 6.825858 113.171881 1.865845 107.637000 1.865846 Z" transform="scale(1.000000,1.000000) translate(352.000000,309.000000)" opacity="1.000000"></path>
        <path d="M 107.637026 1.081523 L 11.990428 1.081324 C 6.455553 1.081314 1.968636 6.041317 1.968621 12.159801 C 1.968614 18.278287 6.455509 23.238308 11.990391 23.238320 L 107.636988 23.238519 C 113.171869 23.238531 117.658785 18.278528 117.658796 12.160042 C 117.658806 6.041556 113.171907 1.081535 107.637026 1.081523 Z" transform="scale(1.000000,1.000000) translate(352.000000,365.000000)" opacity="1.000000"></path>
        <path d="M 107.637031 1.398945 L 11.990433 1.398746 C 6.455559 1.398736 1.968641 6.358739 1.968627 12.477223 C 1.968620 18.595710 6.455515 23.555731 11.990397 23.555742 L 107.636994 23.555942 C 113.171874 23.555953 117.658791 18.595950 117.658801 12.477464 C 117.658812 6.358981 113.171913 1.398957 107.637031 1.398945 Z" transform="scale(1.000000,1.000000) translate(352.000000,418.000000)" opacity="1.000000"></path>
        <path d="M 107.637010 1.814152 L 11.990412 1.813951 C 6.455537 1.813941 1.968620 6.773944 1.968605 12.892428 C 1.968598 19.010913 6.455493 23.970935 11.990375 23.970947 L 107.636972 23.971147 C 113.171853 23.971158 117.658769 19.011155 117.658780 12.892670 C 117.658790 6.774183 113.171891 1.814162 107.637010 1.814152 Z" transform="scale(1.000000,1.000000) translate(352.000000,215.000000)" opacity="1.000000"></path>
        <path d="M 86.375238 1.971193 L 9.455085 1.971203 C 5.142776 1.971204 1.646958 7.485982 1.646959 14.288807 C 1.646960 21.091632 5.142779 26.606409 9.455088 26.606408 L 86.375240 26.606398 C 90.687548 26.606398 94.183364 21.091619 94.183363 14.288795 C 94.183362 7.485970 90.687545 1.971193 86.375238 1.971193 Z" transform="scale(1.000000,1.000000) translate(16.000000,237.000000)" opacity="1.000000"></path>
        <path d="M 83.114615 1.022889 L 9.008328 1.022899 C 4.853771 1.022899 1.485836 5.982911 1.485836 12.101398 C 1.485837 18.219884 4.853773 23.179895 9.008331 23.179895 L 83.114617 23.179885 C 87.269173 23.179884 90.637106 18.219872 90.637106 12.101386 C 90.637105 5.982899 87.269171 1.022888 83.114615 1.022889 Z" transform="scale(1.000000,1.000000) translate(17.000000,332.000000)" opacity="1.000000"></path>
        <path d="M 83.465928 1.849434 L 9.186968 1.849444 C 5.022731 1.849444 1.646948 7.567245 1.646949 14.620513 C 1.646950 21.673779 5.022733 27.391579 9.186971 27.391579 L 83.465931 27.391569 C 87.630167 27.391569 91.637061 21.673767 91.637060 14.620501 C 91.637060 7.567233 87.630165 1.849434 83.465928 1.849434 Z" transform="scale(1.000000,1.000000) translate(16.000000,150.000000)" opacity="1.000000"></path>
        <path d="M 44.642404 95.113234 Q 43.407775 93.467061 43.459218 90.714867 L 36.617314 90.714867 Q 36.720199 93.492783 37.569007 95.987763 Q 38.469258 98.174086 40.398366 100.026030 Q 41.838767 101.337823 43.819318 102.032302 Q 45.799869 102.726781 48.680671 102.726781 Q 54.030731 102.726781 57.310215 99.961726 Q 60.589699 97.196671 60.589699 92.541089 Q 60.589699 89.248745 58.634869 86.985258 Q 57.400240 85.570578 56.062725 85.056149 Q 57.065861 85.056149 58.943527 83.332812 Q 61.747164 80.734947 61.747164 76.233694 Q 61.747164 71.500948 58.467680 67.912807 Q 55.188196 64.324666 48.757835 64.324666 Q 40.835630 64.324666 37.749057 69.494676 Q 36.128606 72.246870 35.948556 76.696680 L 43.150560 76.696680 Q 43.150560 74.458914 43.870761 72.992792 Q 45.208276 70.292040 48.732114 70.292040 Q 50.892715 70.292040 52.500305 71.771024 Q 54.107895 73.250007 54.107895 76.027922 Q 54.107895 79.706089 51.124208 80.940718 Q 49.426593 81.635197 45.774148 81.635197 L 45.774148 86.882372 Q 49.349428 86.933815 50.764108 87.576851 Q 53.207645 88.657151 53.207645 91.949496 Q 53.207645 94.084376 51.960155 95.421891 Q 50.712665 96.759406 48.449178 96.759406 Q 45.851312 96.759406 44.642404 95.113234 Z M 94.747777 70.472091 L 94.747777 64.993423 L 91.275382 64.864816 Q 86.079650 64.684766 84.176263 66.665317 Q 82.941634 67.925668 82.941634 70.549255 L 82.941634 87.808344 L 79.031974 87.808344 L 79.031974 93.029797 L 82.941634 93.029797 L 82.941634 100.849116 L 90.195081 100.849116 L 90.195081 93.029797 L 94.747777 93.029797 L 94.747777 87.808344 L 90.195081 87.808344 L 90.195081 72.992792 Q 90.195081 71.269455 90.632346 70.845052 Q 91.069610 70.420648 93.307376 70.420648 Q 93.641755 70.420648 94.014715 70.433508 Q 94.387676 70.446369 94.747777 70.472091 Z M 122.835593 89.737452 Q 126.385152 85.287642 126.385152 79.217381 Q 126.385152 73.044235 122.835593 68.658729 Q 119.286034 64.273223 112.058308 64.273223 Q 104.830583 64.273223 101.281023 68.658729 Q 97.731464 73.044235 97.731464 79.217381 Q 97.731464 85.287642 101.281023 89.737452 Q 104.830583 94.187262 112.058308 94.187262 Q 119.286034 94.187262 122.835593 89.737452 Z M 112.032587 87.988394 Q 108.817406 87.988394 107.081209 85.712046 Q 105.345011 83.435698 105.345011 79.217381 Q 105.345011 74.999065 107.081209 72.709856 Q 108.817406 70.420648 112.032587 70.420648 Q 115.247767 70.420648 116.971104 72.709856 Q 118.694441 74.999065 118.694441 79.217381 Q 118.694441 83.435698 116.971104 85.712046 Q 115.247767 87.988394 112.032587 87.988394 Z M 147.451015 67.591289 Q 144.235834 70.883634 144.235834 75.590658 Q 144.235834 78.728674 145.663375 81.275097 Q 147.090915 83.821520 149.843109 85.107592 Q 147.142358 86.908093 146.332132 89.004391 Q 145.521907 91.100689 145.521907 92.926911 Q 145.521907 96.990899 148.582759 99.858840 Q 151.643610 102.726781 157.225164 102.726781 Q 162.806717 102.726781 165.867569 99.858840 Q 168.928421 96.990899 168.928421 92.926911 Q 168.928421 91.100689 168.118195 89.004391 Q 167.307970 86.908093 164.607218 85.364807 Q 167.359412 83.821520 168.748370 81.275097 Q 170.137328 78.728674 170.137328 75.590658 Q 170.137328 70.883634 166.652073 67.578428 Q 163.166817 64.273223 156.916506 64.273223 Q 150.666195 64.273223 147.451015 67.591289 Z M 151.849382 76.079365 Q 151.849382 73.327171 153.276922 71.809606 Q 154.704462 70.292040 157.225164 70.292040 Q 159.745865 70.292040 161.173405 71.809606 Q 162.600945 73.327171 162.600945 76.079365 Q 162.600945 78.934446 161.147684 80.413429 Q 159.694422 81.892412 157.225164 81.892412 Q 154.755905 81.892412 153.302643 80.413429 Q 151.849382 78.934446 151.849382 76.079365 Z M 153.778490 88.785759 Q 155.013119 87.499686 157.225164 87.499686 Q 159.462929 87.499686 160.684698 88.785759 Q 161.906466 90.071831 161.906466 92.103825 Q 161.906466 94.315869 160.684698 95.563359 Q 159.462929 96.810849 157.225164 96.810849 Q 155.013119 96.810849 153.765629 95.563359 Q 152.518139 94.315869 152.518139 92.103825 Q 152.518139 90.071831 153.778490 88.785759 Z M 18.303646 2.250637 L 1.970529 2.250637 L 1.970529 40.164046 L 18.303646 40.164046 Q 21.827483 40.112603 24.168135 39.340959 Q 28.154959 38.029166 30.624217 34.531049 Q 32.604768 31.701691 33.324969 28.409346 Q 34.045169 25.117001 34.045169 22.133314 Q 34.045169 14.571209 31.010039 9.324035 Q 26.894608 2.250637 18.303646 2.250637 Z M 24.193856 30.492783 Q 22.367634 33.579356 16.966130 33.579356 L 9.661240 33.579356 L 9.661240 8.835327 L 16.966130 8.835327 Q 22.573405 8.835327 24.785449 14.365438 Q 25.994357 17.400568 25.994357 21.593163 Q 25.994357 27.380488 24.193856 30.492783 Z M 63.419058 10.481500 Q 63.136122 7.986519 60.821192 5.414375 Q 57.220190 1.324666 50.738386 1.324666 Q 45.388326 1.324666 41.298616 4.771339 Q 37.208907 8.218012 37.208907 15.985888 Q 37.208907 23.265057 40.899934 27.148995 Q 44.590961 31.032933 50.481172 31.032933 Q 53.979288 31.032933 56.782926 29.721139 Q 59.586563 28.409346 61.412785 25.579987 Q 63.058958 23.085007 63.547665 19.792662 Q 63.830601 17.863554 63.779158 14.236830 L 44.590961 14.236830 Q 44.745290 10.018514 47.240270 8.320898 Q 48.757835 7.266319 50.892715 7.266319 Q 53.156202 7.266319 54.570881 8.552391 Q 55.342525 9.246870 55.934118 10.481500 Z M 56.165611 19.072462 Q 55.985561 21.978985 54.403692 23.483689 Q 52.821823 24.988394 50.481172 24.988394 Q 47.934749 24.988394 46.532930 23.393664 Q 45.131111 21.798935 44.771011 19.072462 Z M 92.972997 20.229927 L 85.462335 20.229927 Q 85.256564 21.798935 84.407756 23.059286 Q 83.173127 24.756901 80.575261 24.756901 Q 76.871373 24.756901 75.508137 21.078734 Q 74.787936 19.123905 74.787936 15.883003 Q 74.787936 12.796429 75.508137 10.918764 Q 76.819930 7.420648 80.446654 7.420648 Q 83.018798 7.420648 84.099099 8.809606 Q 85.179399 10.198564 85.410892 12.410608 L 92.895833 12.410608 Q 92.638618 9.066820 90.478017 6.083133 Q 87.031343 1.273223 80.266604 1.273223 Q 73.501864 1.273223 70.312405 5.285768 Q 67.122946 9.298313 67.122946 15.702953 Q 67.122946 22.930678 70.646784 26.943224 Q 74.170622 30.955769 80.369490 30.955769 Q 85.642385 30.955769 88.999034 28.589396 Q 92.355682 26.223023 92.972997 20.229927 Z M 121.395192 26.737452 Q 124.944752 22.287642 124.944752 16.217381 Q 124.944752 10.044235 121.395192 5.658729 Q 117.845633 1.273223 110.617907 1.273223 Q 103.390182 1.273223 99.840622 5.658729 Q 96.291063 10.044235 96.291063 16.217381 Q 96.291063 22.287642 99.840622 26.737452 Q 103.390182 31.187262 110.617907 31.187262 Q 117.845633 31.187262 121.395192 26.737452 Z M 110.592186 24.988394 Q 107.377006 24.988394 105.640808 22.712046 Q 103.904611 20.435698 103.904611 16.217381 Q 103.904611 11.999065 105.640808 9.709856 Q 107.377006 7.420648 110.592186 7.420648 Q 113.807366 7.420648 115.530703 9.709856 Q 117.254040 11.999065 117.254040 16.217381 Q 117.254040 20.435698 115.530703 22.712046 Q 113.807366 24.988394 110.592186 24.988394 Z M 155.707598 40.112603 L 155.707598 2.250637 L 148.582759 2.250637 L 148.582759 6.134576 Q 147.013750 3.639595 145.007478 2.507852 Q 143.001205 1.376108 140.017518 1.376108 Q 135.104722 1.376108 131.748074 5.350071 Q 128.391425 9.324035 128.391425 15.548624 Q 128.391425 22.724907 131.696631 26.840338 Q 135.001836 30.955769 140.531947 30.955769 Q 143.078370 30.955769 145.058921 29.836886 Q 147.039472 28.718003 148.274101 26.737452 L 148.274101 40.112603 Z M 135.953530 16.088774 Q 135.953530 12.204836 137.496816 9.889906 Q 139.014381 7.549255 142.126676 7.549255 Q 145.238971 7.549255 146.859422 9.864185 Q 148.479873 12.179115 148.479873 15.857281 Q 148.479873 21.001570 145.882007 23.213614 Q 144.287277 24.551129 142.178119 24.551129 Q 138.962939 24.551129 137.458234 22.120453 Q 135.953530 19.689776 135.953530 16.088774 Z M 186.367559 10.481500 Q 186.084624 7.986519 183.769694 5.414375 Q 180.168692 1.324666 173.686888 1.324666 Q 168.336827 1.324666 164.247118 4.771339 Q 160.157408 8.218012 160.157408 15.985888 Q 160.157408 23.265057 163.848435 27.148995 Q 167.539463 31.032933 173.429673 31.032933 Q 176.927790 31.032933 179.731427 29.721139 Q 182.535064 28.409346 184.361287 25.579987 Q 186.007459 23.085007 186.496167 19.792662 Q 186.779103 17.863554 186.727660 14.236830 L 167.539463 14.236830 Q 167.693791 10.018514 170.188771 8.320898 Q 171.706336 7.266319 173.841216 7.266319 Q 176.104703 7.266319 177.519383 8.552391 Q 178.291026 9.246870 178.882619 10.481500 Z M 179.114112 19.072462 Q 178.934062 21.978985 177.352193 23.483689 Q 175.770325 24.988394 173.429673 24.988394 Q 170.883250 24.988394 169.481432 23.393664 Q 168.079613 21.798935 167.719513 19.072462 Z M 205.761528 23.522272 Q 201.337440 23.522272 199.819875 20.641470 Q 198.971067 19.021019 198.971067 15.651510 L 198.971067 2.250637 L 191.589013 2.250637 L 191.589013 30.287011 L 198.585245 30.287011 L 198.585245 25.399937 Q 200.282861 28.203574 201.543211 29.232432 Q 203.600927 30.955769 206.893272 30.955769 Q 207.099043 30.955769 207.240511 30.942908 Q 207.381979 30.930047 207.870687 30.904326 L 207.870687 23.393664 Q 207.176208 23.470829 206.636057 23.496550 Q 206.095907 23.522272 205.761528 23.522272 Z" transform="scale(1.000000,1.000000) translate(129.000000,198.000000)" opacity="1.000000"></path>
    </g>
</svg>