<?xml version="1.0" encoding="UTF-8" standalone="yes"?>
<!DOCTYPE svg PUBLIC "-//W3C//DTD SVG 1.1//EN" "http://www.w3.org/Graphics/SVG/1.1/DTD/svg11.dtd">

<svg width="500" height="500" viewBox="0 0 500 500" xmlns="http://www.w3.org/2000/svg" xmlns:xlink="http://www.w3.org/1999/xlink" version="1.1" baseProfile="full">
    <g transform="scale(1,-1) translate(0,-500)">
        <path d="M 19.472150 388.436684 L 18.625866 10.147822 L 6.817143 18.258714 L 216.695528 99.501960 L 211.151156 91.410478 L 211.151156 303.827714 L 216.571666 295.785276 L 7.539565 380.413656 L 19.472150 388.436684 Z M 2.119076 388.475506 C 2.132825 394.621056 8.355240 398.804777 14.051661 396.498534 L 223.083762 311.870153 C 226.360093 310.543703 228.504273 307.362373 228.504273 303.827714 L 228.504273 91.410478 C 228.504273 87.827210 226.301542 84.612535 222.959901 83.318996 L 13.081516 2.075751 C 7.387928 -0.128219 1.259134 4.081380 1.272793 10.186643 L 2.119076 388.475506 Z" transform="scale(1.000000,1.000000) translate(161.000000,77.000000)" opacity="1.000000"></path>
        <path d="M 150.524569 1.566449 L 10.276219 2.152921 C 5.484330 2.172959 1.615980 6.073797 1.636018 10.865686 C 1.656056 15.657575 5.556894 19.525924 10.348783 19.505886 L 150.597133 18.919414 C 155.389022 18.899376 159.257372 14.998538 159.237334 10.206649 C 159.217296 5.414760 155.316458 1.546410 150.524569 1.566449 Z" transform="scale(1.000000,1.000000) translate(21.000000,381.000000)" opacity="1.000000"></path>
        <path d="M 150.124110 1.039516 L 10.260088 1.884415 C 5.468245 1.913362 1.607154 5.821385 1.636101 10.613228 C 1.665048 15.405072 5.573070 19.266162 10.364914 19.237215 L 150.228936 18.392317 C 155.020779 18.363370 158.881870 14.455347 158.852923 9.663503 C 158.823976 4.871660 154.915953 1.010569 150.124110 1.039516 Z" transform="scale(1.000000,1.000000) translate(21.000000,135.000000)" opacity="1.000000"></path>
        <path d="M 18.676558 96.845914 L 18.676558 9.773650 C 18.676558 4.981719 14.791931 1.097091 10.000000 1.097091 C 5.208069 1.097091 1.323442 4.981719 1.323442 9.773650 L 1.323442 96.845914 C 1.323442 101.637845 5.208069 105.522473 10.000000 105.522473 C 14.791931 105.522473 18.676558 101.637845 18.676558 96.845914 Z" transform="scale(1.000000,1.000000) translate(240.000000,19.000000)" opacity="1.000000"></path>
        <path d="M 9.827714 18.676558 L 102.072649 18.676558 C 106.864580 18.676558 110.749208 14.791931 110.749208 10.000000 C 110.749208 5.208069 106.864580 1.323442 102.072649 1.323442 L 9.827714 1.323442 C 5.035783 1.323442 1.151156 5.208069 1.151156 10.000000 C 1.151156 14.791931 5.035783 18.676558 9.827714 18.676558 Z" transform="scale(1.000000,1.000000) translate(371.000000,240.000000)" opacity="1.000000"></path>
        <path d="M 149.896745 1.370907 L 10.259917 2.217191 C 5.468074 2.246233 1.607060 6.154332 1.636102 10.946175 C 1.665143 15.738018 5.573242 19.599031 10.365085 19.569989 L 150.001914 18.723706 C 154.793757 18.694664 158.654770 14.786565 158.625729 9.994722 C 158.596687 5.202879 154.688588 1.341866 149.896745 1.370907 Z" transform="scale(1.000000,1.000000) translate(21.000000,298.000000)" opacity="1.000000"></path>
        <path d="M 149.844167 1.435572 L 10.207338 3.128140 C 5.415759 3.186219 1.578500 7.117645 1.636580 11.909224 C 1.694660 16.700802 5.626085 20.538062 10.417664 20.479982 L 150.054492 18.787414 C 154.846071 18.729335 158.683330 14.797910 158.625251 10.006331 C 158.567171 5.214752 154.635746 1.377492 149.844167 1.435572 Z" transform="scale(1.000000,1.000000) translate(21.000000,215.000000)" opacity="1.000000"></path>
        <path d="M 19.200870 129.163999 L 19.200870 9.773650 C 19.200870 4.981719 15.316242 1.097091 10.524311 1.097091 C 5.732380 1.097091 1.847753 4.981719 1.847753 9.773650 L 1.847753 129.163999 C 1.847753 133.955930 5.732380 137.840558 10.524311 137.840558 C 15.316242 137.840558 19.200870 133.955930 19.200870 129.163999 Z" transform="scale(1.000000,1.000000) translate(318.000000,19.000000)" opacity="1.000000"></path>
    </g>
</svg>