<?xml version="1.0" encoding="UTF-8" standalone="yes"?>
<!DOCTYPE svg PUBLIC "-//W3C//DTD SVG 1.1//EN" "http://www.w3.org/Graphics/SVG/1.1/DTD/svg11.dtd">

<svg width="500" height="500" viewBox="0 0 500 500" xmlns="http://www.w3.org/2000/svg" xmlns:xlink="http://www.w3.org/1999/xlink" version="1.1" baseProfile="full">
    <g transform="scale(1,-1) translate(0,-500)">
        <path d="M 19.472150 388.436684 L 18.625866 10.147822 L 6.817143 18.258714 L 216.695528 99.501960 L 211.151156 91.410478 L 211.151156 303.827714 L 216.571666 295.785276 L 7.539565 380.413656 L 19.472150 388.436684 Z M 2.119076 388.475506 C 2.132825 394.621056 8.355240 398.804777 14.051661 396.498534 L 223.083762 311.870153 C 226.360093 310.543703 228.504273 307.362373 228.504273 303.827714 L 228.504273 91.410478 C 228.504273 87.827210 226.301542 84.612535 222.959901 83.318996 L 13.081516 2.075751 C 7.387928 -0.128219 1.259134 4.081380 1.272793 10.186643 L 2.119076 388.475506 Z" transform="scale(1.000000,1.000000) translate(161.000000,77.000000)" opacity="1.000000"></path>
        <path d="M 150.524569 1.189761 L 10.276219 1.776233 C 5.484330 1.796271 1.615980 5.697109 1.636018 10.488998 C 1.656056 15.280887 5.556894 19.149237 10.348783 19.129199 L 150.597133 18.542726 C 155.389022 18.522688 159.257372 14.621850 159.237334 9.829961 C 159.217296 5.038072 155.316458 1.169723 150.524569 1.189761 Z" transform="scale(1.000000,1.000000) translate(21.000000,433.000000)" opacity="1.000000"></path>
        <path d="M 150.124110 1.573299 L 10.260088 2.418198 C 5.468245 2.447145 1.607154 6.355167 1.636101 11.147011 C 1.665048 15.938854 5.573070 19.799945 10.364914 19.770998 L 150.228936 18.926099 C 155.020779 18.897153 158.881870 14.989130 158.852923 10.197286 C 158.823976 5.405443 154.915953 1.544352 150.124110 1.573299 Z" transform="scale(1.000000,1.000000) translate(21.000000,104.000000)" opacity="1.000000"></path>
        <path d="M 18.829961 87.826874 L 18.829961 10.063731 C 18.829961 5.271800 14.945334 1.387172 10.153403 1.387172 C 5.361472 1.387172 1.476844 5.271800 1.476844 10.063731 L 1.476844 87.826874 C 1.476844 92.618805 5.361472 96.503432 10.153403 96.503432 C 14.945334 96.503432 18.829961 92.618805 18.829961 87.826874 Z" transform="scale(1.000000,1.000000) translate(209.000000,18.000000)" opacity="1.000000"></path>
        <path d="M 9.827714 18.676558 L 102.072649 18.676558 C 106.864580 18.676558 110.749208 14.791931 110.749208 10.000000 C 110.749208 5.208069 106.864580 1.323442 102.072649 1.323442 L 9.827714 1.323442 C 5.035783 1.323442 1.151156 5.208069 1.151156 10.000000 C 1.151156 14.791931 5.035783 18.676558 9.827714 18.676558 Z" transform="scale(1.000000,1.000000) translate(371.000000,240.000000)" opacity="1.000000"></path>
        <path d="M 149.896745 1.832056 L 10.259917 2.678340 C 5.468074 2.707381 1.607060 6.615480 1.636102 11.407323 C 1.665143 16.199166 5.573242 20.060180 10.365085 20.031138 L 150.001914 19.184854 C 154.793757 19.155813 158.654770 15.247714 158.625729 10.455871 C 158.596687 5.664028 154.688588 1.803014 149.896745 1.832056 Z" transform="scale(1.000000,1.000000) translate(21.000000,295.000000)" opacity="1.000000"></path>
        <path d="M 149.844167 1.587599 L 10.207338 3.280166 C 5.415759 3.338246 1.578500 7.269671 1.636580 12.061250 C 1.694660 16.852829 5.626085 20.690088 10.417664 20.632009 L 150.054492 18.939441 C 154.846071 18.881361 158.683330 14.949936 158.625251 10.158357 C 158.567171 5.366778 154.635746 1.529519 149.844167 1.587599 Z" transform="scale(1.000000,1.000000) translate(21.000000,203.000000)" opacity="1.000000"></path>
        <path d="M 18.462346 136.453751 L 18.462346 10.293131 C 18.462346 5.501200 14.577719 1.616573 9.785788 1.616573 C 4.993857 1.616573 1.109229 5.501200 1.109229 10.293131 L 1.109229 136.453751 C 1.109229 141.245682 4.993857 145.130310 9.785788 145.130310 C 14.577719 145.130310 18.462346 141.245682 18.462346 136.453751 Z" transform="scale(1.000000,1.000000) translate(341.000000,20.000000)" opacity="1.000000"></path>
        <path d="M 150.524560 1.797881 L 10.276217 2.384354 C 5.484328 2.404392 1.615978 6.305230 1.636016 11.097119 C 1.656055 15.889008 5.556892 19.757357 10.348781 19.737319 L 150.597125 19.150847 C 155.389014 19.130808 159.257363 15.229971 159.237325 10.438082 C 159.217287 5.646193 155.316450 1.777843 150.524560 1.797881 Z" transform="scale(1.000000,1.000000) translate(21.000000,385.000000)" opacity="1.000000"></path>
        <path d="M 150.676587 1.407677 L 10.428244 1.994150 C 5.636355 2.014188 1.768005 5.915026 1.788043 10.706915 C 1.808081 15.498804 5.708919 19.367153 10.500808 19.347115 L 150.749152 18.760643 C 155.541041 18.740605 159.409390 14.839767 159.389352 10.047878 C 159.369314 5.255989 155.468476 1.387639 150.676587 1.407677 Z" transform="scale(1.000000,1.000000) translate(19.000000,339.000000)" opacity="1.000000"></path>
        <path d="M 150.367465 1.549567 L 10.119122 2.136040 C 5.327233 2.156078 1.458883 6.056915 1.478921 10.848804 C 1.498959 15.640693 5.399797 19.509043 10.191686 19.489005 L 150.440030 18.902532 C 155.231919 18.882494 159.100268 14.981657 159.080230 10.189767 C 159.060192 5.397878 155.159354 1.529529 150.367465 1.549567 Z" transform="scale(1.000000,1.000000) translate(20.000000,251.000000)" opacity="1.000000"></path>
        <path d="M 150.212060 1.536051 L 9.963716 2.122523 C 5.171827 2.142562 1.303477 6.043399 1.323516 10.835288 C 1.343554 15.627177 5.244391 19.495527 10.036280 19.475489 L 150.284624 18.889016 C 155.076513 18.868978 158.944862 14.968140 158.924824 10.176251 C 158.904786 5.384362 155.003949 1.516013 150.212060 1.536051 Z" transform="scale(1.000000,1.000000) translate(20.000000,153.000000)" opacity="1.000000"></path>
        <path d="M 18.919120 112.478161 L 19.720217 10.688217 C 19.757929 5.896434 15.903993 1.981355 11.112211 1.943644 C 6.320428 1.905932 2.405350 5.759867 2.367638 10.551650 L 1.566540 112.341594 C 1.528828 117.133377 5.382764 121.048456 10.174547 121.086167 C 14.966329 121.123879 18.881408 117.269944 18.919120 112.478161 Z" transform="scale(1.000000,1.000000) translate(275.000000,19.000000)" opacity="1.000000"></path>
    </g>
</svg>