<?xml version="1.0" encoding="UTF-8" standalone="yes"?>
<!DOCTYPE svg PUBLIC "-//W3C//DTD SVG 1.1//EN" "http://www.w3.org/Graphics/SVG/1.1/DTD/svg11.dtd">

<svg width="500" height="500" viewBox="0 0 500 500" xmlns="http://www.w3.org/2000/svg" xmlns:xlink="http://www.w3.org/1999/xlink" version="1.1" baseProfile="full">
    <g transform="scale(1,-1) translate(0,-500)">
        <path d="M 19.472150 388.436684 L 18.625866 10.147822 L 6.817143 18.258714 L 216.695528 99.501960 L 211.151156 91.410478 L 211.151156 303.827714 L 216.571666 295.785276 L 7.539565 380.413656 L 19.472150 388.436684 Z M 2.119076 388.475506 C 2.132825 394.621056 8.355240 398.804777 14.051661 396.498534 L 223.083762 311.870153 C 226.360093 310.543703 228.504273 307.362373 228.504273 303.827714 L 228.504273 91.410478 C 228.504273 87.827210 226.301542 84.612535 222.959901 83.318996 L 13.081516 2.075751 C 7.387928 -0.128219 1.259134 4.081380 1.272793 10.186643 L 2.119076 388.475506 Z" transform="scale(1.000000,1.000000) translate(161.000000,77.000000)" opacity="1.000000"></path>
        <path d="M 150.524569 1.100231 L 10.276219 1.686704 C 5.484330 1.706742 1.615980 5.607580 1.636018 10.399469 C 1.656056 15.191358 5.556894 19.059707 10.348783 19.039669 L 150.597133 18.453197 C 155.389022 18.433159 159.257372 14.532321 159.237334 9.740432 C 159.217296 4.948543 155.316458 1.080193 150.524569 1.100231 Z" transform="scale(1.000000,1.000000) translate(21.000000,351.000000)" opacity="1.000000"></path>
        <path d="M 150.124110 1.046274 L 10.260088 1.891173 C 5.468245 1.920120 1.607154 5.828143 1.636101 10.619986 C 1.665048 15.411830 5.573070 19.272920 10.364914 19.243973 L 150.228936 18.399075 C 155.020779 18.370128 158.881870 14.462105 158.852923 9.670262 C 158.823976 4.878418 154.915953 1.017327 150.124110 1.046274 Z" transform="scale(1.000000,1.000000) translate(21.000000,179.000000)" opacity="1.000000"></path>
        <path d="M 19.064680 106.079023 L 19.064680 9.697636 C 19.064680 4.905705 15.180052 1.021078 10.388122 1.021078 C 5.596191 1.021078 1.711563 4.905705 1.711563 9.697636 L 1.711563 106.079023 C 1.711563 110.870954 5.596191 114.755581 10.388122 114.755581 C 15.180052 114.755581 19.064680 110.870954 19.064680 106.079023 Z" transform="scale(1.000000,1.000000) translate(274.000000,25.000000)" opacity="1.000000"></path>
        <path d="M 9.827714 18.676558 L 102.072649 18.676558 C 106.864580 18.676558 110.749208 14.791931 110.749208 10.000000 C 110.749208 5.208069 106.864580 1.323442 102.072649 1.323442 L 9.827714 1.323442 C 5.035783 1.323442 1.151156 5.208069 1.151156 10.000000 C 1.151156 14.791931 5.035783 18.676558 9.827714 18.676558 Z" transform="scale(1.000000,1.000000) translate(371.000000,240.000000)" opacity="1.000000"></path>
    </g>
</svg>