<?xml version="1.0" encoding="UTF-8" standalone="yes"?>
<!DOCTYPE svg PUBLIC "-//W3C//DTD SVG 1.1//EN" "http://www.w3.org/Graphics/SVG/1.1/DTD/svg11.dtd">

<svg width="500" height="500" viewBox="0 0 500 500" xmlns="http://www.w3.org/2000/svg" xmlns:xlink="http://www.w3.org/1999/xlink" version="1.1" baseProfile="full">
    <g transform="scale(1,-1) translate(0,-500)">
        <path d="M 287.778718 210.461149 C 287.778718 312.874925 228.185529 394.631760 156.923987 394.631760 C 85.662445 394.631760 26.069255 312.874925 26.069255 210.461149 C 26.069255 108.047372 85.662445 26.290537 156.923987 26.290537 C 228.185529 26.290537 287.778718 108.047372 287.778718 210.461149 Z M 312.778718 210.461149 C 312.778718 95.638567 244.007709 1.290537 156.923987 1.290537 C 69.840264 1.290537 1.069255 95.638567 1.069255 210.461149 C 1.069255 325.283731 69.840264 419.631760 156.923987 419.631760 C 244.007709 419.631760 312.778718 325.283731 312.778718 210.461149 Z" transform="scale(1.000000,1.000000) translate(99.000000,37.000000)" opacity="1.000000"></path>
        <path d="M 25.033925 203.552611 Q 29.319471 203.552611 31.993023 204.496217 Q 37.064908 206.304796 37.064908 211.219413 Q 37.064908 214.089550 34.548624 215.662227 Q 32.032340 217.195588 26.645919 218.375096 L 20.512477 219.751189 Q 11.469581 221.795670 8.009691 224.194003 Q 2.151467 228.204330 2.151467 236.736106 Q 2.151467 244.520859 7.813106 249.671378 Q 13.474745 254.821897 24.444171 254.821897 Q 33.605017 254.821897 40.072653 249.966255 Q 46.540290 245.110613 46.854825 235.871133 L 35.217012 235.871133 Q 34.902476 241.100286 30.656247 243.302034 Q 27.825427 244.756761 23.618515 244.756761 Q 18.939800 244.756761 16.148297 242.869548 Q 13.356794 240.982335 13.356794 237.601078 Q 13.356794 234.495040 16.108980 232.961680 Q 17.878242 231.939439 23.657832 230.563347 L 33.644334 228.165013 Q 40.210263 226.592336 43.552202 223.958101 Q 48.742038 219.869140 48.742038 212.123703 Q 48.742038 204.181682 42.667571 198.932871 Q 36.593104 193.684059 25.505728 193.684059 Q 14.182450 193.684059 7.695156 198.854237 Q 1.207861 204.024414 1.207861 213.067310 L 12.767040 213.067310 Q 13.317478 209.096299 14.929472 207.130452 Q 17.878242 203.552611 25.033925 203.552611 Z M 95.529193 220.340943 L 95.529193 195.178103 L 84.087965 195.178103 L 84.087965 221.245232 Q 84.087965 224.705123 82.908457 226.828238 Q 81.375096 229.816325 77.089550 229.816325 Q 72.646736 229.816325 70.346695 226.847896 Q 68.046654 223.879467 68.046654 218.375096 L 68.046654 195.178103 L 56.880644 195.178103 L 56.880644 252.934684 L 68.046654 252.934684 L 68.046654 232.450560 Q 70.484304 236.185669 73.688635 237.660054 Q 76.892965 239.134439 80.431490 239.134439 Q 84.402500 239.134439 87.646148 237.758346 Q 90.889795 236.382253 92.973593 233.551434 Q 94.742855 231.153101 95.136024 228.617158 Q 95.529193 226.081216 95.529193 220.340943 Z M 117.507361 238.033565 L 117.507361 195.178103 L 106.144767 195.178103 L 106.144767 238.033565 Z M 117.507361 253.485121 L 117.507361 243.144767 L 106.144767 243.144767 L 106.144767 253.485121 Z M 148.449791 253.485121 L 148.449791 244.363592 Q 147.506185 244.481542 145.284778 244.540518 Q 143.063371 244.599493 142.218057 243.557594 Q 141.372742 242.515696 141.372742 241.257554 L 141.372742 237.640395 L 148.725010 237.640395 L 148.725010 229.737691 L 141.372742 229.737691 L 141.372742 195.178103 L 130.206732 195.178103 L 130.206732 229.737691 L 123.955339 229.737691 L 123.955339 237.640395 L 130.088781 237.640395 L 130.088781 240.392581 Q 130.088781 247.273045 132.408481 249.867963 Q 134.846131 253.721023 144.164245 253.721023 Q 145.225802 253.721023 146.090775 253.662047 Q 146.955748 253.603072 148.449791 253.485121 Z M 174.792139 203.159441 L 174.792139 194.784934 L 169.484353 194.588349 Q 161.542331 194.313130 158.632878 197.340535 Q 156.745665 199.267065 156.745665 203.277392 L 156.745665 229.659057 L 150.769490 229.659057 L 150.769490 237.640395 L 156.745665 237.640395 L 156.745665 249.592744 L 167.833041 249.592744 L 167.833041 237.640395 L 174.792139 237.640395 L 174.792139 229.659057 L 167.833041 229.659057 L 167.833041 207.012501 Q 167.833041 204.378266 168.501429 203.729537 Q 169.169817 203.080807 172.590391 203.080807 Q 173.101511 203.080807 173.671606 203.100466 Q 174.241702 203.120124 174.792139 203.159441 Z M 19.647504 156.131269 L 31.757121 156.131269 L 31.757121 108.597091 L 60.458485 108.597091 L 60.458485 98.178103 L 19.647504 98.178103 Z M 104.611406 110.759523 Q 104.178920 106.945780 100.640395 103.014086 Q 95.136024 96.762693 85.228156 96.762693 Q 77.050233 96.762693 70.798840 102.031163 Q 64.547447 107.299632 64.547447 119.173348 Q 64.547447 130.300041 70.189427 136.236898 Q 75.831408 142.173756 84.834987 142.173756 Q 90.182090 142.173756 94.467636 140.168592 Q 98.753182 138.163428 101.544685 133.838565 Q 104.060969 130.024822 104.807991 124.992254 Q 105.240477 122.043484 105.161843 116.499796 L 75.831408 116.499796 Q 76.067310 110.051818 79.881052 107.456900 Q 82.200752 105.844906 85.464058 105.844906 Q 88.923948 105.844906 91.086380 107.810753 Q 92.265888 108.872310 93.170177 110.759523 Z M 93.524030 123.891380 Q 93.248811 128.334194 90.830819 130.634235 Q 88.412828 132.934276 84.834987 132.934276 Q 80.942610 132.934276 78.799837 130.496626 Q 76.657064 128.058975 76.106626 123.891380 Z M 132.801650 156.485121 L 132.801650 147.363592 Q 131.858044 147.481542 129.636637 147.540518 Q 127.415230 147.599493 126.569916 146.557594 Q 125.724601 145.515696 125.724601 144.257554 L 125.724601 140.640395 L 133.076869 140.640395 L 133.076869 132.737691 L 125.724601 132.737691 L 125.724601 98.178103 L 114.558591 98.178103 L 114.558591 132.737691 L 108.307198 132.737691 L 108.307198 140.640395 L 114.440640 140.640395 L 114.440640 143.392581 Q 114.440640 150.273045 116.760340 152.867963 Q 119.197990 156.721023 128.516104 156.721023 Q 129.577661 156.721023 130.442634 156.662047 Q 131.307606 156.603072 132.801650 156.485121 Z M 159.143998 106.159441 L 159.143998 97.784934 L 153.836212 97.588349 Q 145.894190 97.313130 142.984737 100.340535 Q 141.097524 102.267065 141.097524 106.277392 L 141.097524 132.659057 L 135.121349 132.659057 L 135.121349 140.640395 L 141.097524 140.640395 L 141.097524 152.592744 L 152.184900 152.592744 L 152.184900 140.640395 L 159.143998 140.640395 L 159.143998 132.659057 L 152.184900 132.659057 L 152.184900 110.012501 Q 152.184900 107.378266 152.853288 106.729537 Q 153.521676 106.080807 156.942250 106.080807 Q 157.453370 106.080807 158.023465 106.100466 Q 158.593561 106.120124 159.143998 106.159441 Z M 92.914617 46.589166 Q 90.909453 48.987499 87.174344 48.987499 Q 82.063142 48.987499 80.215246 45.173756 Q 79.153689 42.972007 78.957104 38.175341 L 68.066313 38.175341 Q 68.341531 45.448974 70.700548 49.931105 Q 75.182678 58.462881 86.623907 58.462881 Q 95.666803 58.462881 101.013906 53.449971 Q 106.361010 48.437062 106.361010 40.180505 Q 106.361010 33.850478 102.586584 28.935861 Q 100.109617 25.672555 94.447978 21.662227 L 89.965847 18.477555 Q 85.758935 15.489468 84.205916 14.152692 Q 82.652897 12.815916 81.591339 11.046654 L 106.478961 11.046654 L 106.478961 1.178103 L 67.437242 1.178103 Q 67.594510 7.311545 70.071477 12.383430 Q 72.469810 18.084386 81.394755 24.453730 Q 89.140191 29.997418 91.420574 32.395751 Q 94.919781 36.130860 94.919781 40.573674 Q 94.919781 44.190832 92.914617 46.589166 Z" transform="scale(1.000000,1.000000) translate(162.000000,122.000000)" opacity="1.000000"></path>
    </g>
</svg>