<?xml version="1.0" encoding="UTF-8" standalone="yes"?>
<!DOCTYPE svg PUBLIC "-//W3C//DTD SVG 1.1//EN" "http://www.w3.org/Graphics/SVG/1.1/DTD/svg11.dtd">

<svg width="500" height="500" viewBox="0 0 500 500" xmlns="http://www.w3.org/2000/svg" xmlns:xlink="http://www.w3.org/1999/xlink" version="1.1" baseProfile="full">
    <g transform="scale(1,-1) translate(0,-500)">
        <path d="M 198.841171 313.383021 L 18.731431 313.383042 C 20.823054 313.383042 22.518636 315.078631 22.518636 317.170247 L 22.518601 18.829772 C 22.518601 20.921396 20.823020 22.616978 18.731396 22.616978 L 198.841136 22.616956 C 196.749521 22.616957 195.053931 20.921375 195.053931 18.829752 L 195.053966 317.170226 C 195.053966 315.078611 196.749556 313.383021 198.841171 313.383021 Z M 198.841173 334.423048 C 208.369644 334.423047 216.093995 326.698696 216.093993 317.170224 L 216.093958 18.829750 C 216.093957 9.301278 208.369604 1.576929 198.841134 1.576930 L 18.731394 1.576951 C 9.202923 1.576952 1.478573 9.301304 1.478574 18.829775 L 1.478609 317.170249 C 1.478610 326.698721 9.202962 334.423071 18.731433 334.423070 L 198.841173 334.423048 Z" transform="scale(1.000000,1.000000) translate(143.000000,82.000000)" opacity="1.000000"></path>
        <path d="M 89.185665 1.043094 L 9.834925 1.043100 C 5.243052 1.043100 1.520609 4.765548 1.520609 9.357420 C 1.520610 13.949292 5.243054 17.671740 9.834927 17.671739 L 89.185666 17.671733 C 93.777538 17.671733 97.499986 13.949284 97.499985 9.357413 C 97.499985 4.765541 93.777536 1.043093 89.185665 1.043094 Z" transform="scale(1.000000,1.000000) translate(340.000000,109.000000)" opacity="1.000000"></path>
        <path d="M 89.185669 1.483225 L 9.834929 1.483231 C 5.243056 1.483232 1.520607 5.205679 1.520607 9.797551 C 1.520608 14.389423 5.243058 18.111870 9.834931 18.111870 L 89.185671 18.111864 C 93.777543 18.111863 97.499990 14.389416 97.499989 9.797544 C 97.499989 5.205671 93.777541 1.483224 89.185669 1.483225 Z" transform="scale(1.000000,1.000000) translate(340.000000,145.000000)" opacity="1.000000"></path>
        <path d="M 89.185674 1.193632 L 9.834934 1.193636 C 5.243061 1.193637 1.520612 4.916086 1.520612 9.507957 C 1.520613 14.099829 5.243063 17.822277 9.834936 17.822276 L 89.185675 17.822270 C 93.777547 17.822270 97.499995 14.099821 97.499994 9.507950 C 97.499994 4.916077 93.777545 1.193631 89.185674 1.193632 Z" transform="scale(1.000000,1.000000) translate(340.000000,186.000000)" opacity="1.000000"></path>
        <path d="M 89.185683 1.242302 L 9.834942 1.242308 C 5.243070 1.242309 1.520620 4.964756 1.520621 9.556629 C 1.520621 14.148500 5.243072 17.870947 9.834944 17.870948 L 89.185684 17.870941 C 93.777556 17.870941 97.500003 14.148493 97.500003 9.556620 C 97.500002 4.964749 93.777554 1.242301 89.185683 1.242302 Z" transform="scale(1.000000,1.000000) translate(340.000000,258.000000)" opacity="1.000000"></path>
        <path d="M 89.185687 1.679306 L 9.834947 1.679312 C 5.243074 1.679313 1.520624 5.401762 1.520625 9.993632 C 1.520625 14.585505 5.243076 18.307952 9.834949 18.307951 L 89.185688 18.307945 C 93.777560 18.307945 97.500008 14.585497 97.500007 9.993625 C 97.500007 5.401754 93.777558 1.679306 89.185687 1.679306 Z" transform="scale(1.000000,1.000000) translate(340.000000,294.000000)" opacity="1.000000"></path>
        <path d="M 89.185708 1.118208 L 9.834965 1.118059 C 5.243098 1.118051 1.520642 4.840492 1.520630 9.432363 C 1.520624 14.024235 5.243062 17.746689 9.834934 17.746698 L 89.185677 17.746848 C 93.777548 17.746856 97.500003 14.024416 97.500012 9.432543 C 97.500021 4.840671 93.777580 1.118217 89.185708 1.118208 Z" transform="scale(1.000000,1.000000) translate(340.000000,336.000000)" opacity="1.000000"></path>
        <path d="M 89.185713 1.132486 L 9.834969 1.132336 C 5.243103 1.132329 1.520647 4.854769 1.520635 9.446641 C 1.520629 14.038513 5.243066 17.760967 9.834939 17.760976 L 89.185682 17.761126 C 93.777553 17.761134 97.500008 14.038694 97.500017 9.446821 C 97.500025 4.854951 93.777585 1.132495 89.185713 1.132486 Z" transform="scale(1.000000,1.000000) translate(340.000000,376.000000)" opacity="1.000000"></path>
        <path d="M 89.185695 1.094299 L 9.834951 1.094148 C 5.243085 1.094141 1.520629 4.816582 1.520617 9.408453 C 1.520611 14.000324 5.243048 17.722779 9.834921 17.722788 L 89.185664 17.722938 C 93.777535 17.722946 97.499990 14.000506 97.499999 9.408634 C 97.500007 4.816761 93.777567 1.094307 89.185695 1.094299 Z" transform="scale(1.000000,1.000000) translate(340.000000,224.000000)" opacity="1.000000"></path>
        <path d="M 91.721158 1.582846 L 9.814323 1.582856 C 5.222450 1.582856 1.500000 5.305304 1.500001 9.897177 C 1.500001 14.489049 5.222452 18.211495 9.814325 18.211495 L 91.721160 18.211485 C 96.313031 18.211484 100.035479 14.489037 100.035478 9.897165 C 100.035477 5.305292 96.313029 1.582846 91.721158 1.582846 Z" transform="scale(1.000000,1.000000) translate(61.000000,242.000000)" opacity="1.000000"></path>
    </g>
</svg>