<?xml version="1.0" encoding="UTF-8" standalone="yes"?>
<!DOCTYPE svg PUBLIC "-//W3C//DTD SVG 1.1//EN" "http://www.w3.org/Graphics/SVG/1.1/DTD/svg11.dtd">

<svg width="500" height="500" viewBox="0 0 500 500" xmlns="http://www.w3.org/2000/svg" xmlns:xlink="http://www.w3.org/1999/xlink" version="1.1" baseProfile="full">
    <g transform="scale(1,-1) translate(0,-500)">
        <path d="M 198.841171 313.383021 L 18.731431 313.383042 C 20.823054 313.383042 22.518636 315.078631 22.518636 317.170247 L 22.518601 18.829773 C 22.518601 20.921396 20.823019 22.616978 18.731396 22.616978 L 198.841136 22.616956 C 196.749521 22.616957 195.053931 20.921375 195.053931 18.829752 L 195.053966 317.170226 C 195.053966 315.078611 196.749555 313.383021 198.841171 313.383021 Z M 198.841173 334.423048 C 208.369643 334.423047 216.093995 326.698696 216.093993 317.170224 L 216.093958 18.829750 C 216.093957 9.301278 208.369604 1.576929 198.841134 1.576930 L 18.731394 1.576951 C 9.202922 1.576952 1.478573 9.301304 1.478574 18.829775 L 1.478609 317.170249 C 1.478610 326.698721 9.202962 334.423071 18.731433 334.423070 L 198.841173 334.423048 Z" transform="scale(1.000000,1.000000) translate(143.000000,82.000000)" opacity="1.000000"></path>
        <path d="M 89.185667 1.997075 L 9.834927 1.997082 C 5.243054 1.997082 1.520611 5.719529 1.520612 10.311402 C 1.520612 14.903274 5.243056 18.625722 9.834929 18.625721 L 89.185668 18.625715 C 93.777540 18.625715 97.499988 14.903266 97.499987 10.311395 C 97.499987 5.719523 93.777538 1.997075 89.185667 1.997075 Z" transform="scale(1.000000,1.000000) translate(340.000000,128.000000)" opacity="1.000000"></path>
        <path d="M 89.185676 1.659307 L 9.834936 1.659313 C 5.243063 1.659313 1.520614 5.381761 1.520614 9.973633 C 1.520615 14.565505 5.243065 18.287952 9.834938 18.287951 L 89.185677 18.287945 C 93.777549 18.287945 97.499997 14.565497 97.499996 9.973625 C 97.499996 5.381752 93.777547 1.659306 89.185676 1.659307 Z" transform="scale(1.000000,1.000000) translate(340.000000,204.000000)" opacity="1.000000"></path>
        <path d="M 89.185685 1.321536 L 9.834945 1.321542 C 5.243072 1.321541 1.520623 5.043990 1.520623 9.635862 C 1.520624 14.227734 5.243074 17.950181 9.834947 17.950182 L 89.185686 17.950175 C 93.777558 17.950175 97.500006 14.227727 97.500005 9.635855 C 97.500005 5.043984 93.777556 1.321536 89.185685 1.321536 Z" transform="scale(1.000000,1.000000) translate(340.000000,280.000000)" opacity="1.000000"></path>
        <path d="M 89.185710 1.902185 L 9.834967 1.902037 C 5.243100 1.902028 1.520644 5.624469 1.520632 10.216340 C 1.520626 14.808212 5.243064 18.530667 9.834937 18.530675 L 89.185679 18.530825 C 93.777551 18.530834 97.500006 14.808393 97.500014 10.216521 C 97.500023 5.624650 93.777582 1.902194 89.185710 1.902185 Z" transform="scale(1.000000,1.000000) translate(340.000000,356.000000)" opacity="1.000000"></path>
        <path d="M 91.721158 1.582846 L 9.814323 1.582856 C 5.222450 1.582857 1.500000 5.305304 1.500001 9.897177 C 1.500001 14.489049 5.222452 18.211495 9.814325 18.211495 L 91.721160 18.211485 C 96.313031 18.211484 100.035478 14.489037 100.035478 9.897165 C 100.035477 5.305292 96.313029 1.582846 91.721158 1.582846 Z" transform="scale(1.000000,1.000000) translate(61.000000,242.000000)" opacity="1.000000"></path>
    </g>
</svg>