<?xml version="1.0" encoding="UTF-8" standalone="yes"?>
<!DOCTYPE svg PUBLIC "-//W3C//DTD SVG 1.1//EN" "http://www.w3.org/Graphics/SVG/1.1/DTD/svg11.dtd">

<svg width="256" height="256" viewBox="0 0 256 256" xmlns="http://www.w3.org/2000/svg" xmlns:xlink="http://www.w3.org/1999/xlink" version="1.1" baseProfile="full">
    <defs>
        <linearGradient id="105553169086528105553161331904" x1="50.000000%" x2="50.000000%" y1="100.000000%" y2="0.000000%">
            <stop offset="0%" style="stop-color:#79ff6d;stop-opacity:1.000000"></stop>
            <stop offset="100%" style="stop-color:#003d5c;stop-opacity:1.000000"></stop>
        </linearGradient>
    </defs>
    <g transform="scale(1,-1) translate(0,-256)">
        <path d="M 1.000000 1.000000 L 257.000000 1.000000 L 257.000000 257.000000 L 1.000000 257.000000 Z" transform="scale(1.000000,1.000000) translate(-1.000000,-1.000000)" fill="url(#105553169086528105553161331904)" opacity="1.000000"></path>
        <path d="M 4.219583 16.770238 C 44.466264 56.252408 96.677410 56.064695 130.293438 16.216384 L 117.783709 9.371009 C 113.939036 79.292542 95.959683 121.486010 64.450796 137.484202 L 70.992844 137.964060 C 37.792092 115.023840 19.487652 72.537607 16.217717 9.404481 L 4.219583 16.770238 Z M 13.536015 3.130730 C 8.568305 -1.742608 1.140153 2.817598 1.537881 10.496487 C 5.091260 79.102033 25.748046 127.048273 63.646417 153.234341 C 65.643771 154.614412 68.065582 154.792053 70.188465 153.714182 C 107.732048 134.651966 128.287498 86.412977 132.459967 10.530010 C 132.904977 2.436771 124.761937 -2.019135 119.950238 3.684636 C 91.894108 36.942264 48.162524 37.099490 13.536015 3.130730 Z" transform="scale(1.000000,1.000000) translate(61.000000,73.000000)" opacity="1.000000"></path>
        <path d="M 14.790671 65.702598 L 14.790683 9.392930 C 14.790684 5.082125 11.849490 1.587526 8.221345 1.587525 C 4.593198 1.587524 1.652004 5.082122 1.652003 9.392927 L 1.651990 65.702595 C 1.651989 70.013398 4.593182 73.507999 8.221329 73.508000 C 11.849475 73.508000 14.790670 70.013401 14.790671 65.702598 Z" transform="scale(1.000000,1.000000) translate(80.000000,27.000000)" opacity="1.000000"></path>
        <path d="M 5.783435 16.051392 C 56.380206 41.441158 86.283494 42.150263 128.822163 15.699702 L 120.292751 3.212729 C 83.145797 26.459916 58.948434 25.887202 13.037832 2.848980 L 5.783435 16.051392 Z M 13.037832 2.848980 C 3.827656 -1.772745 -3.426749 11.429668 5.783435 16.051392 C 56.378982 41.440546 86.549567 42.154637 128.841416 15.687690 C 137.531300 10.249416 129.018621 -2.213058 120.312006 3.200719 C 81.508115 30.859186 58.958523 25.892263 13.037832 2.848980 Z" transform="scale(1.000000,1.000000) translate(61.000000,49.000000)" opacity="1.000000"></path>
        <path d="M 15.138665 65.702601 L 15.138678 9.392932 C 15.138679 5.082128 12.197485 1.587529 8.569339 1.587528 C 4.941193 1.587527 1.999998 5.082125 1.999998 9.392930 L 1.999985 65.702598 C 1.999984 70.013401 4.941177 73.508001 8.569323 73.508002 C 12.197469 73.508003 15.138664 70.013404 15.138665 65.702601 Z" transform="scale(1.000000,1.000000) translate(158.000000,27.000000)" opacity="1.000000"></path>
    </g>
</svg>